<svg width="85" height="34" viewBox="0 0 85 34" fill="none" xmlns="http://www.w3.org/2000/svg">
<path fill-rule="evenodd" clip-rule="evenodd" d="M1.4011 2.83333C2.1749 2.83333 2.8022 2.19907 2.8022 1.41667C2.8022 0.634263 2.1749 0 1.4011 0C0.627293 0 0 0.634263 0 1.41667C0 2.19907 0.627293 2.83333 1.4011 2.83333ZM1.4011 13.2222C2.1749 13.2222 2.8022 12.588 2.8022 11.8056C2.8022 11.0232 2.1749 10.3889 1.4011 10.3889C0.627293 10.3889 0 11.0232 0 11.8056C0 12.588 0.627293 13.2222 1.4011 13.2222ZM11.6758 13.2222C12.4496 13.2222 13.0769 12.588 13.0769 11.8056C13.0769 11.0232 12.4496 10.3889 11.6758 10.3889C10.902 10.3889 10.2747 11.0232 10.2747 11.8056C10.2747 12.588 10.902 13.2222 11.6758 13.2222ZM23.3516 11.8056C23.3516 12.588 22.7244 13.2222 21.9505 13.2222C21.1767 13.2222 20.5494 12.588 20.5494 11.8056C20.5494 11.0232 21.1767 10.3889 21.9505 10.3889C22.7244 10.3889 23.3516 11.0232 23.3516 11.8056ZM32.2253 13.2222C32.9991 13.2222 33.6264 12.588 33.6264 11.8056C33.6264 11.0232 32.9991 10.3889 32.2253 10.3889C31.4515 10.3889 30.8242 11.0232 30.8242 11.8056C30.8242 12.588 31.4515 13.2222 32.2253 13.2222ZM43.9011 11.8056C43.9011 12.588 43.2738 13.2222 42.5 13.2222C41.7262 13.2222 41.0989 12.588 41.0989 11.8056C41.0989 11.0232 41.7262 10.3889 42.5 10.3889C43.2738 10.3889 43.9011 11.0232 43.9011 11.8056ZM52.7747 13.2222C53.5485 13.2222 54.1758 12.588 54.1758 11.8056C54.1758 11.0232 53.5485 10.3889 52.7747 10.3889C52.0009 10.3889 51.3736 11.0232 51.3736 11.8056C51.3736 12.588 52.0009 13.2222 52.7747 13.2222ZM64.4505 11.8056C64.4505 12.588 63.8233 13.2222 63.0494 13.2222C62.2756 13.2222 61.6483 12.588 61.6483 11.8056C61.6483 11.0232 62.2756 10.3889 63.0494 10.3889C63.8233 10.3889 64.4505 11.0232 64.4505 11.8056ZM73.3242 13.2222C74.098 13.2222 74.7253 12.588 74.7253 11.8056C74.7253 11.0232 74.098 10.3889 73.3242 10.3889C72.5504 10.3889 71.9231 11.0232 71.9231 11.8056C71.9231 12.588 72.5504 13.2222 73.3242 13.2222ZM85 11.8056C85 12.588 84.3727 13.2222 83.5989 13.2222C82.8251 13.2222 82.1978 12.588 82.1978 11.8056C82.1978 11.0232 82.8251 10.3889 83.5989 10.3889C84.3727 10.3889 85 11.0232 85 11.8056ZM2.8022 22.1944C2.8022 22.9768 2.1749 23.6111 1.4011 23.6111C0.627293 23.6111 0 22.9768 0 22.1944C0 21.412 0.627293 20.7778 1.4011 20.7778C2.1749 20.7778 2.8022 21.412 2.8022 22.1944ZM13.0769 22.1944C13.0769 22.9768 12.4496 23.6111 11.6758 23.6111C10.902 23.6111 10.2747 22.9768 10.2747 22.1944C10.2747 21.412 10.902 20.7778 11.6758 20.7778C12.4496 20.7778 13.0769 21.412 13.0769 22.1944ZM21.9505 23.6111C22.7244 23.6111 23.3516 22.9768 23.3516 22.1944C23.3516 21.412 22.7244 20.7778 21.9505 20.7778C21.1767 20.7778 20.5494 21.412 20.5494 22.1944C20.5494 22.9768 21.1767 23.6111 21.9505 23.6111ZM33.6264 22.1944C33.6264 22.9768 32.9991 23.6111 32.2253 23.6111C31.4515 23.6111 30.8242 22.9768 30.8242 22.1944C30.8242 21.412 31.4515 20.7778 32.2253 20.7778C32.9991 20.7778 33.6264 21.412 33.6264 22.1944ZM42.5 23.6111C43.2738 23.6111 43.9011 22.9768 43.9011 22.1944C43.9011 21.412 43.2738 20.7778 42.5 20.7778C41.7262 20.7778 41.0989 21.412 41.0989 22.1944C41.0989 22.9768 41.7262 23.6111 42.5 23.6111ZM54.1758 22.1944C54.1758 22.9768 53.5485 23.6111 52.7747 23.6111C52.0009 23.6111 51.3736 22.9768 51.3736 22.1944C51.3736 21.412 52.0009 20.7778 52.7747 20.7778C53.5485 20.7778 54.1758 21.412 54.1758 22.1944ZM63.0494 23.6111C63.8233 23.6111 64.4505 22.9768 64.4505 22.1944C64.4505 21.412 63.8233 20.7778 63.0494 20.7778C62.2756 20.7778 61.6483 21.412 61.6483 22.1944C61.6483 22.9768 62.2756 23.6111 63.0494 23.6111ZM74.7253 22.1944C74.7253 22.9768 74.098 23.6111 73.3242 23.6111C72.5504 23.6111 71.9231 22.9768 71.9231 22.1944C71.9231 21.412 72.5504 20.7778 73.3242 20.7778C74.098 20.7778 74.7253 21.412 74.7253 22.1944ZM83.5989 23.6111C84.3727 23.6111 85 22.9768 85 22.1944C85 21.412 84.3727 20.7778 83.5989 20.7778C82.8251 20.7778 82.1978 21.412 82.1978 22.1944C82.1978 22.9768 82.8251 23.6111 83.5989 23.6111ZM11.6758 2.83333C12.4496 2.83333 13.0769 2.19907 13.0769 1.41667C13.0769 0.634263 12.4496 0 11.6758 0C10.902 0 10.2747 0.634263 10.2747 1.41667C10.2747 2.19907 10.902 2.83333 11.6758 2.83333ZM2.8022 32.5833C2.8022 33.3657 2.1749 34 1.4011 34C0.627293 34 0 33.3657 0 32.5833C0 31.8009 0.627293 31.1667 1.4011 31.1667C2.1749 31.1667 2.8022 31.8009 2.8022 32.5833ZM13.0769 32.5833C13.0769 33.3657 12.4496 34 11.6758 34C10.902 34 10.2747 33.3657 10.2747 32.5833C10.2747 31.8009 10.902 31.1667 11.6758 31.1667C12.4496 31.1667 13.0769 31.8009 13.0769 32.5833ZM21.9505 34C22.7244 34 23.3516 33.3657 23.3516 32.5833C23.3516 31.8009 22.7244 31.1667 21.9505 31.1667C21.1767 31.1667 20.5494 31.8009 20.5494 32.5833C20.5494 33.3657 21.1767 34 21.9505 34ZM33.6264 32.5833C33.6264 33.3657 32.9991 34 32.2253 34C31.4515 34 30.8242 33.3657 30.8242 32.5833C30.8242 31.8009 31.4515 31.1667 32.2253 31.1667C32.9991 31.1667 33.6264 31.8009 33.6264 32.5833ZM42.5 34C43.2738 34 43.9011 33.3657 43.9011 32.5833C43.9011 31.8009 43.2738 31.1667 42.5 31.1667C41.7262 31.1667 41.0989 31.8009 41.0989 32.5833C41.0989 33.3657 41.7262 34 42.5 34ZM54.1758 32.5833C54.1758 33.3657 53.5485 34 52.7747 34C52.0009 34 51.3736 33.3657 51.3736 32.5833C51.3736 31.8009 52.0009 31.1667 52.7747 31.1667C53.5485 31.1667 54.1758 31.8009 54.1758 32.5833ZM63.0494 34C63.8233 34 64.4505 33.3657 64.4505 32.5833C64.4505 31.8009 63.8233 31.1667 63.0494 31.1667C62.2756 31.1667 61.6483 31.8009 61.6483 32.5833C61.6483 33.3657 62.2756 34 63.0494 34ZM74.7253 32.5833C74.7253 33.3657 74.098 34 73.3242 34C72.5504 34 71.9231 33.3657 71.9231 32.5833C71.9231 31.8009 72.5504 31.1667 73.3242 31.1667C74.098 31.1667 74.7253 31.8009 74.7253 32.5833ZM83.5989 34C84.3727 34 85 33.3657 85 32.5833C85 31.8009 84.3727 31.1667 83.5989 31.1667C82.8251 31.1667 82.1978 31.8009 82.1978 32.5833C82.1978 33.3657 82.8251 34 83.5989 34ZM21.9505 2.83333C22.7244 2.83333 23.3516 2.19907 23.3516 1.41667C23.3516 0.634263 22.7244 0 21.9505 0C21.1767 0 20.5494 0.634263 20.5494 1.41667C20.5494 2.19907 21.1767 2.83333 21.9505 2.83333ZM33.6264 1.41667C33.6264 2.19907 32.9991 2.83333 32.2253 2.83333C31.4515 2.83333 30.8242 2.19907 30.8242 1.41667C30.8242 0.634263 31.4515 0 32.2253 0C32.9991 0 33.6264 0.634263 33.6264 1.41667ZM42.5 2.83333C43.2738 2.83333 43.9011 2.19907 43.9011 1.41667C43.9011 0.634263 43.2738 0 42.5 0C41.7262 0 41.0989 0.634263 41.0989 1.41667C41.0989 2.19907 41.7262 2.83333 42.5 2.83333ZM54.1758 1.41667C54.1758 2.19907 53.5485 2.83333 52.7747 2.83333C52.0009 2.83333 51.3736 2.19907 51.3736 1.41667C51.3736 0.634263 52.0009 0 52.7747 0C53.5485 0 54.1758 0.634263 54.1758 1.41667ZM63.0494 2.83333C63.8233 2.83333 64.4505 2.19907 64.4505 1.41667C64.4505 0.634263 63.8233 0 63.0494 0C62.2756 0 61.6483 0.634263 61.6483 1.41667C61.6483 2.19907 62.2756 2.83333 63.0494 2.83333ZM74.7253 1.41667C74.7253 2.19907 74.098 2.83333 73.3242 2.83333C72.5504 2.83333 71.9231 2.19907 71.9231 1.41667C71.9231 0.634263 72.5504 0 73.3242 0C74.098 0 74.7253 0.634263 74.7253 1.41667ZM83.5989 2.83333C84.3727 2.83333 85 2.19907 85 1.41667C85 0.634263 84.3727 0 83.5989 0C82.8251 0 82.1978 0.634263 82.1978 1.41667C82.1978 2.19907 82.8251 2.83333 83.5989 2.83333Z" fill="#CF6BCB"/>
</svg>
